# xmcd
#
# Track frame offsets:
#	150
#	12688
#	29721
#	37522
#	44442
#	60966
#	81339
#	83999
#	98414
#	101673
#	109541
#	123024
#	145369
#	161360
#	179705
#
# Disc length: 2621 seconds
# Revision: 0
# Processed by: cddbd v1.5.2PL0 Copyright (c) Steve Scherf et al.
# Submitted via: dBpowerAMP V12.0
#
DISCID=ba0a3b0f
DTITLE=Mamma Coal - Raven Haired Vixen
DYEAR=2016
DGENRE=Country
TTITLE0=Love of a Mother
TTITLE1=Ride Through the Night
TTITLE2=Love of a Mother Theme
TTITLE3=Medley: Blue Rock Montana/Raven Haired Vixen
TTITLE4=Together Again
TTITLE5=Raven Haired Vixen
TTITLE6=Love of a Mother Theme
TTITLE7=I Need Thee Every Hour
TTITLE8=Good Morning My Angel
TTITLE9=Streets of Laredo
TTITLE10=Montana
TTITLE11=You Can Sleep In My Arms
TTITLE12=The Jewel
TTITLE13=Do Right Woman, Do Right Man
TTITLE14=All the Pretty Little Horses
EXTD=
EXTT0=
EXTT1=
EXTT2=
EXTT3=
EXTT4=
EXTT5=
EXTT6=
EXTT7=
EXTT8=
EXTT9=
EXTT10=
EXTT11=
EXTT12=
EXTT13=
EXTT14=
PLAYORDER=
